<svg width="91" height="34" viewBox="0 0 91 34" fill="none" xmlns="http://www.w3.org/2000/svg">
<path fill-rule="evenodd" clip-rule="evenodd" d="M37.9016 17.6296V5.67926H39.8897V10.3284C40.4483 9.50993 41.2534 8.806 42.6008 8.806C44.556 8.806 45.6897 10.1156 45.6897 12.1292V17.6296H43.7016V12.7185C43.7016 11.3761 43.0279 10.6067 41.8449 10.6067C40.6948 10.6067 39.8897 11.4089 39.8897 12.7513V17.6296H37.9016ZM52.2126 17.8261C49.5673 17.8261 47.6121 15.8125 47.6121 13.357V13.3242C47.6121 10.8523 49.5837 8.806 52.2455 8.806C54.9072 8.806 56.8625 10.8196 56.8625 13.2915V13.3242C56.8625 15.7798 54.8908 17.8261 52.2126 17.8261ZM52.2455 16.1072C53.8557 16.1072 54.8744 14.8467 54.8744 13.357V13.3242C54.8744 11.8018 53.7735 10.5413 52.2126 10.5413C50.6189 10.5413 49.6002 11.7854 49.6002 13.2915V13.3242C49.6002 14.8303 50.701 16.1072 52.2455 16.1072ZM61.8574 17.7933C60.6251 17.7933 59.2613 17.3513 58.1769 16.5001L59.0642 15.1577C60.0007 15.8616 61.0194 16.2218 61.9067 16.2218C62.761 16.2218 63.254 15.8616 63.254 15.2887V15.2559C63.254 14.5847 62.3338 14.3556 61.3152 14.0445C60.0336 13.6844 58.6041 13.1605 58.6041 11.5071V11.4744C58.6041 9.83733 59.9678 8.83874 61.6931 8.83874C62.7775 8.83874 63.9605 9.21526 64.8806 9.82096L64.0919 11.2288C63.254 10.7213 62.3667 10.4103 61.6438 10.4103C60.8715 10.4103 60.4279 10.7704 60.4279 11.2779V11.3107C60.4279 11.9327 61.3644 12.1947 62.3831 12.5221C63.6483 12.915 65.0777 13.4879 65.0777 15.0431V15.0759C65.0777 16.893 63.6647 17.7933 61.8574 17.7933ZM70.0069 17.777C68.5446 17.777 67.5095 17.1385 67.5095 15.2396V10.6886H66.4086V8.98608H67.5095V6.61237H69.4976V8.98608H71.8307V10.6886H69.4976V14.9285C69.4976 15.6979 69.8919 16.009 70.5656 16.009C71.0092 16.009 71.4035 15.9107 71.7978 15.7143V17.335C71.3049 17.6133 70.7463 17.777 70.0069 17.777ZM76.8256 17.8097C74.8704 17.8097 73.7367 16.5001 73.7367 14.4865V8.98608H75.7248V13.8972C75.7248 15.2396 76.3984 16.009 77.5814 16.009C78.7315 16.009 79.5366 15.2068 79.5366 13.8644V8.98608H81.5247V17.6296H79.5366V16.2873C78.978 17.1058 78.1729 17.8097 76.8256 17.8097ZM86.9961 17.7933C85.7638 17.7933 84.4001 17.3513 83.3157 16.5001L84.2029 15.1577C85.1395 15.8616 86.1582 16.2218 87.0454 16.2218C87.8998 16.2218 88.3927 15.8616 88.3927 15.2887V15.2559C88.3927 14.5847 87.4726 14.3556 86.4539 14.0445C85.1723 13.6844 83.7429 13.1605 83.7429 11.5071V11.4744C83.7429 9.83733 85.1066 8.83874 86.8318 8.83874C87.9162 8.83874 89.0992 9.21526 90.0193 9.82096L89.2307 11.2288C88.3927 10.7213 87.5055 10.4103 86.7825 10.4103C86.0103 10.4103 85.5667 10.7704 85.5667 11.2779V11.3107C85.5667 11.9327 86.5032 12.1947 87.5219 12.5221C88.787 12.915 90.2165 13.4879 90.2165 15.0431V15.0759C90.2165 16.893 88.8035 17.7933 86.9961 17.7933Z" fill="#212121"/>
<path fill-rule="evenodd" clip-rule="evenodd" d="M38.1809 32.8415V21.8734H38.986V23.7396C39.7089 22.6428 40.7769 21.6769 42.4364 21.6769C44.4574 21.6769 46.5112 23.2976 46.5112 26.0151V26.0478C46.5112 28.7653 44.4574 30.4187 42.4364 30.4187C40.7605 30.4187 39.6761 29.4692 38.986 28.4215V32.8415H38.1809ZM42.3543 29.6493C44.1781 29.6493 45.6404 28.3233 45.6404 26.0805V26.0478C45.6404 23.8542 44.1123 22.4463 42.3543 22.4463C40.6126 22.4463 38.9367 23.9033 38.9367 26.0314V26.0642C38.9367 28.2087 40.6126 29.6493 42.3543 29.6493ZM52.7384 30.4187C50.2574 30.4187 48.45 28.4215 48.45 26.0805V26.0478C48.45 23.7068 50.2738 21.6769 52.7712 21.6769C55.2523 21.6769 57.0596 23.6741 57.0596 26.0151V26.0478C57.0596 28.3888 55.2358 30.4187 52.7384 30.4187ZM52.7712 29.6657C54.7593 29.6657 56.1888 28.045 56.1888 26.0805V26.0478C56.1888 24.0342 54.6772 22.4299 52.7384 22.4299C50.7503 22.4299 49.3208 24.0506 49.3208 26.0151V26.0478C49.3208 28.0614 50.8324 29.6657 52.7712 29.6657ZM63.2375 30.4187C60.8222 30.4187 58.9656 28.4215 58.9656 26.0805V26.0478C58.9656 23.7068 60.8386 21.6769 63.2375 21.6769C64.8148 21.6769 65.8007 22.3972 66.5893 23.2157L66.0143 23.8051C65.2913 23.0684 64.4698 22.4299 63.2211 22.4299C61.3151 22.4299 59.8364 24.0179 59.8364 26.0151V26.0478C59.8364 28.0614 61.3644 29.6657 63.2868 29.6657C64.4698 29.6657 65.3899 29.0599 66.0964 28.2742L66.6551 28.7653C65.8007 29.7311 64.782 30.4187 63.2375 30.4187ZM72.11 30.4187C69.9905 30.4187 68.7582 28.9781 68.7582 26.9809V21.8734H69.5633V26.8336C69.5633 28.5525 70.5327 29.682 72.225 29.682C73.8681 29.682 75.1332 28.4379 75.1332 26.7026V21.8734H75.9383V30.2222H75.1332V28.6671C74.5746 29.6493 73.638 30.4187 72.11 30.4187ZM81.7055 30.3859C80.4896 30.3859 79.1587 29.8948 78.2715 29.1745L78.748 28.5361C79.6681 29.24 80.6868 29.6329 81.7547 29.6329C82.8885 29.6329 83.7757 29.0108 83.7757 28.045V28.0122C83.7757 27.03 82.7241 26.6699 81.5576 26.3425C80.1938 25.9496 78.6822 25.5403 78.6822 24.0506V24.0179C78.6822 22.6755 79.8159 21.7097 81.4426 21.7097C82.4448 21.7097 83.5785 22.0698 84.4165 22.6264L83.9893 23.2976C83.2171 22.7901 82.297 22.4627 81.4097 22.4627C80.2596 22.4627 79.5038 23.0848 79.5038 23.9197V23.9524C79.5038 24.8855 80.6375 25.2293 81.8369 25.5731C83.1842 25.9496 84.5972 26.4407 84.5972 27.914V27.9468C84.5972 29.4365 83.3156 30.3859 81.7055 30.3859Z" fill="#212121"/>
<path fill-rule="evenodd" clip-rule="evenodd" d="M17.6946 6.29529C19.088 6.29529 20.2221 5.16498 20.2221 3.77551V0.877956C18.6387 0.3196 16.9431 0 15.1667 0C8.97563 0 3.6582 3.7026 1.30244 9.00282C4.71607 7.28469 8.55969 6.29604 12.6388 6.29604L17.6946 6.29529ZM0.241908 12.5003C3.8129 10.1773 8.06563 8.81469 12.6388 8.81469L17.6946 8.81356C20.483 8.81356 22.75 6.55369 22.75 3.77551V2.03849C23.6558 2.5602 24.4987 3.17484 25.2726 3.86618C25.2233 7.99076 21.8453 11.3322 17.6946 11.3322L12.6388 11.3333C7.87226 11.3333 3.49288 12.9937 0.0333667 15.753C0.029752 15.6746 0.0243022 15.5965 0.018849 15.5183C0.00942963 15.3833 0 15.2482 0 15.1111C0 14.2184 0.0925167 13.3503 0.241908 12.5003ZM17.6946 16.3691C22.739 16.3691 27.0797 13.4168 29.1079 9.15922C28.6699 8.14111 28.1129 7.18798 27.4714 6.29982C26.3418 10.6348 22.3936 13.8505 17.6946 13.8505L12.6388 13.852C7.91776 13.852 3.63242 15.7152 0.455379 18.7291C0.684017 19.649 0.992279 20.5368 1.37979 21.3815C4.15567 18.3124 8.16573 16.3702 12.6388 16.3702L17.6946 16.3691ZM30.088 12.4697C27.3413 16.348 22.8194 18.8889 17.6946 18.8889H12.6388C8.60405 18.8889 5.01979 20.7789 2.70573 23.7135C3.20206 24.4256 3.75602 25.0943 4.36459 25.7104C6.19483 23.1132 9.21906 21.4075 12.6388 21.4075H17.6946C22.6158 21.4075 27.0702 19.3917 30.2803 16.1489C30.2842 16.0908 30.2884 16.0327 30.2925 15.9746L30.2926 15.9739V15.9739V15.9739V15.9738C30.3129 15.6882 30.3333 15.4022 30.3333 15.1111C30.3333 14.2082 30.2397 13.3291 30.088 12.4697ZM6.2972 27.3507C7.65386 25.2907 9.98763 23.9258 12.6388 23.9258H17.6946C22.0834 23.9258 26.139 22.5106 29.4567 20.1333C27.3773 26.0066 21.7736 30.2222 15.1667 30.2222C11.8516 30.2222 8.79288 29.1497 6.2972 27.3507Z" fill="#C00000"/>
</svg>
